# xmcd CD database file
#
# Track frame offsets:
#	150
#	31781
#	61234
#	125334
#	173212
#	209007
#
# Disc length: 3992 seconds
#
# Revision: 0
# Processed by: cddbd v1.5.1PL0 Copyright (c) Steve Scherf et al.
# Submitted via: CDex 1.51
#
DISCID=4e0f9606
DTITLE=Ben's Belinga Group - Vertige
DYEAR=1900
DGENRE=Jazz
TTITLE0=Vertige
TTITLE1=Idaba
TTITLE2=Dug-nanda
TTITLE3=German Makossa
TTITLE4=Blanc d'Afrique
TTITLE5=Mbali
EXTD=
EXTT0=
EXTT1=
EXTT2=
EXTT3=
EXTT4=
EXTT5=
PLAYORDER=
